<?xml version="1.0" encoding="utf-8"?>
<!-- Generator: Adobe Illustrator 24.3.0, SVG Export Plug-In . SVG Version: 6.00 Build 0)  -->
<svg version="1.1" id="Layer_1" xmlns="http://www.w3.org/2000/svg" xmlns:xlink="http://www.w3.org/1999/xlink" x="0px" y="0px"
	 viewBox="0 0 294.1 78.2" style="enable-background:new 0 0 294.1 78.2;" xml:space="preserve">
<style type="text/css">
	.st0{fill:url(#SVGID_1_);}
	.st1{fill:url(#SVGID_2_);}
	.st2{fill:url(#SVGID_3_);}
	.st3{fill:url(#SVGID_4_);}
	.st4{fill:url(#SVGID_5_);}
</style>
<g>
	<linearGradient id="SVGID_1_" gradientUnits="userSpaceOnUse" x1="25.0082" y1="61.8099" x2="35.6957" y2="16.6224">
		<stop  offset="0" style="stop-color:#170C67"/>
		<stop  offset="1" style="stop-color:#1893C1"/>
	</linearGradient>
	<path class="st0" d="M30,15.3c0,0-19.7-1.7-17.1,18.5C8.6,33.5,1.1,20,18.9,10.5c10.9-4.5,23-2.2,26.6-1c5.9,2,11.5,3.1,18.6-1
		c-4.7,9.3-3.9,11.3-23.3,7.5C33.1,55.2,29.8,66,29.8,66H19.3L30,15.3z"/>
	<linearGradient id="SVGID_2_" gradientUnits="userSpaceOnUse" x1="63.1121" y1="70.822" x2="73.7996" y2="25.6345">
		<stop  offset="0" style="stop-color:#170C67"/>
		<stop  offset="1" style="stop-color:#1893C1"/>
	</linearGradient>
	<path class="st1" d="M84.8,51.1l9.1-39c0,0-10.4,1-10.8,1.1s-3.7,15.5-8.7,39.9c-19,17.3-20.2,4.2-19.7-2.7
		C74.1,48,76.7,28.6,68.5,27.9c-9.7-0.4-14.1-2-22.4,14.2c-7.7,17.2,1.1,24,8.9,23.9c13.8,0.4,17.7-7.5,18.3-7.6
		c0,0,0.3,3.9,1.7,5.5c8.7,5.5,12.7,1.4,15.3-4.4C81.7,62.2,84.8,51.1,84.8,51.1z M65.3,30.3c5.1,0.1,2.8,10.4-3.5,14.9
		c-2,1.7-6.6,2-6.6,2S57,30.6,65.3,30.3z"/>
</g>
<g>
	<linearGradient id="SVGID_3_" gradientUnits="userSpaceOnUse" x1="110.3729" y1="58.1364" x2="118.4354" y2="4.1364">
		<stop  offset="0" style="stop-color:#F96711"/>
		<stop  offset="1" style="stop-color:#F5BA58"/>
	</linearGradient>
	<path class="st2" d="M109.3,47.3c0,0-14.2,2.7-6.3,12.4c2,1.8,9.6,7.7,15.9-6.9c0.1-7-1.3-11.2-10.1-19.1
		c-6-6.6-12.5-16.9,0.3-22.9c10.1-4.4,23.6-1.5,22.9,4.4s-2.1,8.4-8.3,8.6c2.1-2.8,7-12.7-3.5-12.4c-5.6,0.4-13.2,6-5.3,13.8
		c9.1,9,23.3,17.7,10.7,35.3c-4.4,4.6-7.3,9.7-24.9,6.1c-4.9-1.7-12.5-8.9-5.5-19.9C101.3,36.6,111.6,44.8,109.3,47.3z"/>
	<linearGradient id="SVGID_4_" gradientUnits="userSpaceOnUse" x1="196.0443" y1="70.9277" x2="204.1068" y2="16.9277">
		<stop  offset="0" style="stop-color:#F96711"/>
		<stop  offset="1" style="stop-color:#F5BA58"/>
	</linearGradient>
	<path class="st3" d="M262.7,28.4c-7.7-2.1-11.8,2.5-11.8,2.5l0.7-3.7h-10.8c0,0-3,16.3-4.9,24.1c-2.1,7.3-4.8,9-7.9,8.7
		c-4.5-1-2.1-6.5-2.1-6.5l6.5-26.3l-12.2,0c0,0,0,0-0.3,2.5c-0.7-2.2-8.2-3-11.8-1.4c-13.8,8.3-14.5,19-14.5,28
		c-8.7,7-10.1,1.3-8.2-7.6c4.5-16.3,1.7-16.5,1.8-17.7c-6.3-5.9-12.4-3.4-19.3,2.8c-0.1-3.8-1.1-4.9-5.6-6.3
		c-6.5-1.4-11.2,2.7-11.2,2.7l0.8-2.7h-10.5L132.8,66h10.7c0,0,1.4-7,4.9-24.9c1.5-5.1,3.4-6.9,5.8-7.5c4.5-0.6,3.8,4.5,3.8,4.5
		l-6,28.3c0,0,10.8-0.3,11.2-0.5s0.7-4.6,3.1-17.9c2.5-14.2,7.7-14.2,9-14.2c5.8,0.1,2.2,7.9-0.6,18.3c-2.2,10,3,14.3,5.8,14.3
		c8,0.6,7.6-1,13.8-6.1c3.8,5.2,6.2,6.3,8.3,6.1c8.2-0.2,7.2-1.2,12.5-6.2c0.4,2.8,4.1,6.9,6.6,6.9c10.4,0.1,12-5.1,12-5.1l-1,4.4
		h10.5c0,0,3.8-17.6,6.3-26.1c1.7-6.5,4.9-6.8,7.2-6c1.8,4.9,4.4,4.6,6.3,3C267.8,33.4,265.1,30.4,262.7,28.4z M218.4,38.1
		c0,0-0.3,3.1-1.7,12c-1.4,8.2-6.9,10.4-9.4,10.4c-7.3-2.7-2.8-14.2,0-21.2c3-7,7-9,9.8-7.6C220.1,33.5,218.4,38.1,218.4,38.1z"/>
	<linearGradient id="SVGID_5_" gradientUnits="userSpaceOnUse" x1="269.2507" y1="81.8578" x2="277.3132" y2="27.8578">
		<stop  offset="0" style="stop-color:#F96711"/>
		<stop  offset="1" style="stop-color:#F5BA58"/>
	</linearGradient>
	<path class="st4" d="M279.3,61c0,0-1.9,6.2-10.8,5.2c-2-0.8-5.8-2.1-2.9-15c3.3-15,4.6-21,4.6-21h-2.6l-0.1-2.3h3.6l2.4-11.7
		l10.4-0.5l-2.4,12.4l5.6-0.2l-0.8,2.8h-5.7c0,0-5.4,21.2-5.2,21.6S272.1,61.8,279.3,61z"/>
</g>
</svg>
